HIERARCHY
ROOT Hips
{
  OFFSET 373.837 88.1643 177.628
  CHANNELS 6 Xposition Yposition Zposition Zrotation Xrotation Yrotation
  JOINT RightUpLeg
  {
    OFFSET -9.27602 -1.55371 -0.0617006
    CHANNELS 3 Zrotation Xrotation Yrotation
    JOINT RightLeg
    {
      OFFSET 0.0569767 -41.8713 0.0644562
      CHANNELS 3 Zrotation Xrotation Yrotation
      JOINT RightFoot
      {
        OFFSET -0.463049 -43.0064 -0.0336586
        CHANNELS 3 Zrotation Xrotation Yrotation
        End Site
        {
          OFFSET 0 -7.69 17.5
        }
      }
    }
  }
  JOINT LeftUpLeg
  {
    OFFSET 9.29312 -1.63815 0.0236341
    CHANNELS 3 Zrotation Xrotation Yrotation
    JOINT LeftLeg
    {
      OFFSET 0.0670365 -41.8776 -0.0578197
      CHANNELS 3 Zrotation Xrotation Yrotation
      JOINT LeftFoot
      {
        OFFSET 0.591956 -40.8352 0.210268
        CHANNELS 3 Zrotation Xrotation Yrotation
        End Site
        {
          OFFSET 0 -7.69 17.5
        }
      }
    }
  }
  JOINT Spine
  {
    OFFSET 0.0229142 14.2949 0.0394214
    CHANNELS 3 Zrotation Xrotation Yrotation
    JOINT Spine1
    {
      OFFSET 0.0328969 9.71943 0.0194292
      CHANNELS 3 Zrotation Xrotation Yrotation
      JOINT Spine2
      {
        OFFSET 0.0292955 10.1244 -0.00440821
        CHANNELS 3 Zrotation Xrotation Yrotation
        JOINT Spine3
        {
          OFFSET 0.024556 9.71184 0.0101567
          CHANNELS 3 Zrotation Xrotation Yrotation
          JOINT Neck
          {
            OFFSET 0.152325 10.3757 0.0664015
            CHANNELS 3 Zrotation Xrotation Yrotation
            JOINT Head
            {
              OFFSET 0.134553 9.4858 0.0499874
              CHANNELS 3 Zrotation Xrotation Yrotation
              End Site
              {
                OFFSET 0 15.95 0
              }
            }
          }
          JOINT RightShoulder
          {
            OFFSET -3.19519 6.89024 -0.0330231
            CHANNELS 3 Zrotation Xrotation Yrotation
            JOINT RightArm
            {
              OFFSET -12.6524 0.0927817 0.0603028
              CHANNELS 3 Zrotation Xrotation Yrotation
              JOINT RightForeArm
              {
                OFFSET -26.4983 -0.141459 0.202928
                CHANNELS 3 Zrotation Xrotation Yrotation
                JOINT RightHand
                {
                  OFFSET -25.9883 -0.0240172 0.0141731
                  CHANNELS 3 Zrotation Xrotation Yrotation
                  JOINT RightHandThumb1
                  {
                    OFFSET -2.48905 0.190105 3.12053
                    CHANNELS 3 Zrotation Xrotation Yrotation
                    JOINT RightHandThumb2
                    {
                      OFFSET -3.68274 0 0
                      CHANNELS 3 Zrotation Xrotation Yrotation
                      JOINT RightHandThumb3
                      {
                        OFFSET -2.55832 0 0
                        CHANNELS 3 Zrotation Xrotation Yrotation
                        End Site
                        {
                          OFFSET -2.194 0 0
                        }
                      }
                    }
                  }
                  JOINT RightInHandIndex
                  {
                    OFFSET -3.22368 0.508421 1.97842
                    CHANNELS 3 Zrotation Xrotation Yrotation
                    JOINT RightHandIndex1
                    {
                      OFFSET -5.21684 -0.091368 0.999158
                      CHANNELS 3 Zrotation Xrotation Yrotation
                      JOINT RightHandIndex2
                      {
                        OFFSET -3.61937 0 0
                        CHANNELS 3 Zrotation Xrotation Yrotation
                        JOINT RightHandIndex3
                        {
                          OFFSET -2.0521 0 0
                          CHANNELS 3 Zrotation Xrotation Yrotation
                          End Site
                          {
                            OFFSET -1.805 0 0
                          }
                        }
                      }
                    }
                  }
                  JOINT RightInHandMiddle
                  {
                    OFFSET -3.38211 0.517263 0.756737
                    CHANNELS 3 Zrotation Xrotation Yrotation
                    JOINT RightHandMiddle1
                    {
                      OFFSET -5.17411 -0.084 0.313895
                      CHANNELS 3 Zrotation Xrotation Yrotation
                      JOINT RightHandMiddle2
                      {
                        OFFSET -3.94947 0 0
                        CHANNELS 3 Zrotation Xrotation Yrotation
                        JOINT RightHandMiddle3
                        {
                          OFFSET -2.47579 0 0
                          CHANNELS 3 Zrotation Xrotation Yrotation
                          End Site
                          {
                            OFFSET -1.975 0 0
                          }
                        }
                      }
                    }
                  }
                  JOINT RightInHandRing
                  {
                    OFFSET -3.36516 0.537895 -0.128947
                    CHANNELS 3 Zrotation Xrotation Yrotation
                    JOINT RightHandRing1
                    {
                      OFFSET -4.63474 -0.022105 -0.478947
                      CHANNELS 3 Zrotation Xrotation Yrotation
                      JOINT RightHandRing2
                      {
                        OFFSET -3.44238 0 0
                        CHANNELS 3 Zrotation Xrotation Yrotation
                        JOINT RightHandRing3
                        {
                          OFFSET -2.3881 0 0
                          CHANNELS 3 Zrotation Xrotation Yrotation
                          End Site
                          {
                            OFFSET -1.857 0 0
                          }
                        }
                      }
                    }
                  }
                  JOINT RightInHandPinky
                  {
                    OFFSET -3.16105 0.469368 -1.20179
                    CHANNELS 3 Zrotation Xrotation Yrotation
                    JOINT RightHandPinky1
                    {
                      OFFSET -4.14105 -0.022105 -1.09053
                      CHANNELS 3 Zrotation Xrotation Yrotation
                      JOINT RightHandPinky2
                      {
                        OFFSET -2.75653 0 0
                        CHANNELS 3 Zrotation Xrotation Yrotation
                        JOINT RightHandPinky3
                        {
                          OFFSET -1.74189 0 0
                          CHANNELS 3 Zrotation Xrotation Yrotation
                          End Site
                          {
                            OFFSET -1.645 0 0
                          }
                        }
                      }
                    }
                  }
                }
              }
            }
          }
          JOINT LeftShoulder
          {
            OFFSET 3.28609 6.87948 -0.0751467
            CHANNELS 3 Zrotation Xrotation Yrotation
            JOINT LeftArm
            {
              OFFSET 12.831 -0.0663252 -0.1321
              CHANNELS 3 Zrotation Xrotation Yrotation
              JOINT LeftForeArm
              {
                OFFSET 26.5106 -0.082189 -0.0903645
                CHANNELS 3 Zrotation Xrotation Yrotation
                JOINT LeftHand
                {
                  OFFSET 25.9965 -0.0307163 -0.0535747
                  CHANNELS 3 Zrotation Xrotation Yrotation
                  JOINT LeftHandThumb1
                  {
                    OFFSET 2.48905 0.190105 3.12053
                    CHANNELS 3 Zrotation Xrotation Yrotation
                    JOINT LeftHandThumb2
                    {
                      OFFSET 3.68274 0 0
                      CHANNELS 3 Zrotation Xrotation Yrotation
                      JOINT LeftHandThumb3
                      {
                        OFFSET 2.55832 0 0
                        CHANNELS 3 Zrotation Xrotation Yrotation
                        End Site
                        {
                          OFFSET 2.194 0 0
                        }
                      }
                    }
                  }
                  JOINT LeftInHandIndex
                  {
                    OFFSET 3.22368 0.508421 1.97842
                    CHANNELS 3 Zrotation Xrotation Yrotation
                    JOINT LeftHandIndex1
                    {
                      OFFSET 5.21684 -0.091368 0.999158
                      CHANNELS 3 Zrotation Xrotation Yrotation
                      JOINT LeftHandIndex2
                      {
                        OFFSET 3.61937 0 0
                        CHANNELS 3 Zrotation Xrotation Yrotation
                        JOINT LeftHandIndex3
                        {
                          OFFSET 2.0521 0 0
                          CHANNELS 3 Zrotation Xrotation Yrotation
                          End Site
                          {
                            OFFSET 1.805 0 0
                          }
                        }
                      }
                    }
                  }
                  JOINT LeftInHandMiddle
                  {
                    OFFSET 3.38211 0.517263 0.756737
                    CHANNELS 3 Zrotation Xrotation Yrotation
                    JOINT LeftHandMiddle1
                    {
                      OFFSET 5.17411 -0.084 0.313895
                      CHANNELS 3 Zrotation Xrotation Yrotation
                      JOINT LeftHandMiddle2
                      {
                        OFFSET 3.94947 0 0
                        CHANNELS 3 Zrotation Xrotation Yrotation
                        JOINT LeftHandMiddle3
                        {
                          OFFSET 2.47579 0 0
                          CHANNELS 3 Zrotation Xrotation Yrotation
                          End Site
                          {
                            OFFSET 1.975 0 0
                          }
                        }
                      }
                    }
                  }
                  JOINT LeftInHandRing
                  {
                    OFFSET 3.36516 0.537895 -0.128947
                    CHANNELS 3 Zrotation Xrotation Yrotation
                    JOINT LeftHandRing1
                    {
                      OFFSET 4.63474 -0.022105 -0.478947
                      CHANNELS 3 Zrotation Xrotation Yrotation
                      JOINT LeftHandRing2
                      {
                        OFFSET 3.44238 0 0
                        CHANNELS 3 Zrotation Xrotation Yrotation
                        JOINT LeftHandRing3
                        {
                          OFFSET 2.3881 0 0
                          CHANNELS 3 Zrotation Xrotation Yrotation
                          End Site
                          {
                            OFFSET 1.857 0 0
                          }
                        }
                      }
                    }
                  }
                  JOINT LeftInHandPinky
                  {
                    OFFSET 3.16105 0.469368 -1.20179
                    CHANNELS 3 Zrotation Xrotation Yrotation
                    JOINT LeftHandPinky1
                    {
                      OFFSET 4.14105 -0.022105 -1.09053
                      CHANNELS 3 Zrotation Xrotation Yrotation
                      JOINT LeftHandPinky2
                      {
                        OFFSET 2.75653 0 0
                        CHANNELS 3 Zrotation Xrotation Yrotation
                        JOINT LeftHandPinky3
                        {
                          OFFSET 1.74189 0 0
                          CHANNELS 3 Zrotation Xrotation Yrotation
                          End Site
                          {
                            OFFSET 1.645 0 0
                          }
                        }
                      }
                    }
                  }
                }
              }
            }
          }
        }
      }
    }
  }
}
MOTION
Frames: 3
Frame Time: 0.00833333
4.500197566765303918e+02 -5.393923025970422981e-03 8.865516929709120822e-03 4.242042808162949791e-02 7.132715943721189278e-02 6.730256261458543443e-02 -8.693454678877295116e-02 -4.731776172401781083e-02 -1.455598689336101426e-01 2.943821154769153681e-02 1.440375759309291473e-02 -2.285751619113823505e-02 -2.975015123875776948e-02 6.684573098158809283e-03 -6.312955239225346432e-03 2.580839435748076560e-02 -6.296663028844648458e-02 5.160574465781257031e-02 8.676459086168692922e-03 9.878012388707502200e-02 -2.613618183029903785e-01 5.716234219833831592e-02 -1.363714784879643538e-01 1.404023547936823768e-01 4.364561397015779415e-02 -1.073951647069391023e-02 -2.724307781195882405e-02 8.977321444474203882e-03 -6.590399029127868777e-03 -5.474112749309714698e-03 1.527143928143808067e-02 -1.130235348900991352e-02 -5.963494545410670360e-03 -9.653819266554761669e-04 3.389443905631726092e-03 -2.044136921129815869e-03 -4.827842949154369408e-03 -2.562464019408143036e-03 1.770812190287292254e-02 3.894068189431224708e-02 3.416214560184075572e-02 -5.551452102809552314e-02 1.191290597125815864e-02 -4.285414381883855678e-02 1.633524980151482286e-01 8.547370396110237634e-02 -1.887582267879268569e-02 4.017951778879531692e-03 -4.169244275493699248e-01 3.342805612589569431e-01 -7.187321257424172938e-01 9.777020168944176859e-02 1.449801890023446303e-02 1.140015821650679079e-01 0.000000000000000000e+00 0.000000000000000000e+00 0.000000000000000000e+00 1.574044976307793405e-16 8.282062897804597924e-16 0.000000000000000000e+00 3.997647175781250273e-15 2.053877283476026294e-15 0.000000000000000000e+00 -4.847537230926877232e-16 -5.431390670390252415e-16 -1.383050000802070441e-15 0.000000000000000000e+00 0.000000000000000000e+00 0.000000000000000000e+00 0.000000000000000000e+00 2.238137601149748357e-15 2.096956203934011719e-16 0.000000000000000000e+00 2.255517003249499432e-14 1.464027224921819705e-13 -4.847537230926877232e-16 -5.431390670390252415e-16 -1.383050000802070441e-15 0.000000000000000000e+00 -8.843342899703809171e-17 1.031210378011161335e-15 0.000000000000000000e+00 2.830886977922412816e-18 -1.869303107005952248e-15 0.000000000000000000e+00 1.667104422440442308e-14 9.646903111692124846e-14 -4.847537230926877232e-16 -5.431390670390252415e-16 -1.383050000802070441e-15 0.000000000000000000e+00 0.000000000000000000e+00 0.000000000000000000e+00 0.000000000000000000e+00 -1.518713692184437599e-15 -2.306050737045410558e-15 0.000000000000000000e+00 9.486245647377196708e-15 3.304080985580808761e-14 -4.847537230926877232e-16 -5.431390670390252415e-16 -1.383050000802070441e-15 0.000000000000000000e+00 0.000000000000000000e+00 0.000000000000000000e+00 0.000000000000000000e+00 -1.065132634537806527e-15 -2.701565041828580310e-15 0.000000000000000000e+00 4.869216182521397225e-15 2.047759765980828009e-14 -2.411230184412916158e-02 3.903560435765970893e-02 1.010544852900181895e-01 1.627638630734095510e-02 7.419103489708797627e-02 7.118642466151552800e-03 3.594891971444235529e-02 -2.772286756234928345e-02 -1.806160905566901176e-01 7.870428423767910145e-03 3.016907231706566495e-01 1.174059358734453051e-01 0.000000000000000000e+00 0.000000000000000000e+00 0.000000000000000000e+00 5.892088869104439412e-15 -3.309937040635667411e-17 0.000000000000000000e+00 -1.081915336914880654e-15 -3.540230086919326513e-15 0.000000000000000000e+00 2.861057127449655307e-16 3.118460997468860909e-15 -5.709372923356132782e-16 0.000000000000000000e+00 0.000000000000000000e+00 0.000000000000000000e+00 0.000000000000000000e+00 5.910077474383511853e-17 -5.985599035307440642e-15 0.000000000000000000e+00 7.633927537106857984e-16 -6.047398314331257290e-15 2.861057127449655307e-16 3.118460997468860909e-15 -5.709372923356132782e-16 0.000000000000000000e+00 2.736383004149953421e-15 -5.647162055244584418e-15 0.000000000000000000e+00 9.788209695946274754e-16 -6.566370016457692917e-15 0.000000000000000000e+00 2.137233050937628697e-15 -4.086300051897475680e-15 2.861057127449655307e-16 3.118460997468860909e-15 -5.709372923356132782e-16 0.000000000000000000e+00 0.000000000000000000e+00 0.000000000000000000e+00 0.000000000000000000e+00 1.360070536171839792e-15 -7.668580044845133640e-15 0.000000000000000000e+00 1.388580182478215153e-15 -7.064666298595918654e-15 2.861057127449655307e-16 3.118460997468860909e-15 -5.709372923356132782e-16 0.000000000000000000e+00 0.000000000000000000e+00 0.000000000000000000e+00 0.000000000000000000e+00 3.897830019786530758e-15 -1.142807293493068181e-14 0.000000000000000000e+00 2.687663727000639306e-15 -8.992487493137612179e-15
4.500151084369088608e+02 -2.683855228803958600e-03 1.036448359814557199e-02 2.836431391507032024e-02 2.957385372185125649e-02 2.539008935238751610e-02 -3.636113861152451276e-02 -2.948509257522146862e-02 -5.280608634154843051e-02 2.005011198200130906e-02 8.920460925991417073e-03 -1.020107820328342886e-02 -1.702103383249722879e-02 2.086723618321204964e-03 -1.069987015430235583e-02 2.209288811977982644e-02 -2.948503623129732770e-02 7.529997325170041667e-02 2.190895678254967810e-02 3.324251586438924100e-02 -1.613430978247926972e-01 2.468098307663362662e-02 -5.470353614578224444e-02 6.421781349565565400e-02 -4.365020415777626575e-03 2.660588861657762691e-03 2.566829848694767574e-02 -1.393504249028283942e-03 3.399658281497493131e-04 6.448518671939999607e-03 -1.455100632321394433e-03 2.558779413713642729e-04 1.098273209279301832e-02 1.222783040862233158e-03 1.703679568306650047e-03 -3.876054140058389670e-03 -4.558672081387708580e-04 -1.367864243357320726e-03 6.057843831367729255e-03 2.873392623514799474e-02 -6.334116477052786909e-03 -7.086260037320334104e-02 1.556642450931613499e-02 -6.998791661141848253e-02 2.294495789168270461e-01 1.345286500801572138e-01 -3.829678391734731013e-01 -1.740317835389270928e-01 -6.137657704104619583e-02 4.199737484146263689e-01 -2.782538449341935838e-01 2.136832780035356760e-02 9.687508379989599738e-03 1.188839583814496094e-02 0.000000000000000000e+00 0.000000000000000000e+00 0.000000000000000000e+00 -4.976910789247969140e-15 7.932733300947372270e-16 0.000000000000000000e+00 3.043524147678079772e-17 2.564004454459395040e-15 0.000000000000000000e+00 2.919536943687339659e-15 -7.397551293862590209e-16 -2.124854550794655260e-15 0.000000000000000000e+00 0.000000000000000000e+00 0.000000000000000000e+00 0.000000000000000000e+00 2.779381635423133072e-16 -1.164785835977908365e-15 0.000000000000000000e+00 3.241005157262101192e-14 1.939298834787578555e-13 2.919536943687339659e-15 -7.397551293862590209e-16 -2.124854550794655260e-15 0.000000000000000000e+00 -6.182504298740213387e-16 2.746018194412412151e-15 0.000000000000000000e+00 6.480408639511964271e-16 2.808447540785414134e-15 0.000000000000000000e+00 2.117276174525797981e-14 1.191566216628975299e-13 2.919536943687339659e-15 -7.397551293862590209e-16 -2.124854550794655260e-15 0.000000000000000000e+00 0.000000000000000000e+00 0.000000000000000000e+00 0.000000000000000000e+00 -6.761166010860008963e-17 1.005238306164184013e-15 0.000000000000000000e+00 7.682071135829312511e-15 4.683350667799684929e-14 2.919536943687339659e-15 -7.397551293862590209e-16 -2.124854550794655260e-15 0.000000000000000000e+00 0.000000000000000000e+00 0.000000000000000000e+00 0.000000000000000000e+00 -1.092622442239023461e-15 3.835929978435352767e-15 0.000000000000000000e+00 5.494789186798922789e-15 3.036616403507751154e-14 1.029147971749465621e-03 -1.992615384813894823e-03 3.646810457158832647e-02 -2.522829655223931752e-02 4.515898040239164912e-02 3.359140986805644186e-02 4.602903735056249751e-02 -4.541044283983469709e-02 -8.381107875973006771e-02 -1.312789878102640917e-03 3.844231231242100089e-01 9.587138630832880981e-02 0.000000000000000000e+00 0.000000000000000000e+00 0.000000000000000000e+00 4.966511159370787290e-15 -1.381689840051181497e-15 0.000000000000000000e+00 4.562385170728238178e-15 -2.198624390673658239e-15 0.000000000000000000e+00 -1.222880135010241425e-15 -1.488899353824498952e-15 -2.945988142849139691e-16 0.000000000000000000e+00 0.000000000000000000e+00 0.000000000000000000e+00 0.000000000000000000e+00 1.033467036874008845e-15 -4.950941237932286424e-15 0.000000000000000000e+00 5.317057755384506062e-17 -4.147963916066043497e-15 -1.222880135010241425e-15 -1.488899353824498952e-15 -2.945988142849139691e-16 0.000000000000000000e+00 7.066924600635661181e-16 -5.254929067944846698e-15 0.000000000000000000e+00 -6.916668699209287514e-16 -5.536934925315846224e-15 0.000000000000000000e+00 1.293531327756897381e-15 -6.118551399529359806e-15 -1.222880135010241425e-15 -1.488899353824498952e-15 -2.945988142849139691e-16 0.000000000000000000e+00 0.000000000000000000e+00 0.000000000000000000e+00 0.000000000000000000e+00 2.195639118434261064e-15 -4.341329467078022110e-15 0.000000000000000000e+00 1.511094063380443244e-15 -5.335705522160403760e-15 -1.222880135010241425e-15 -1.488899353824498952e-15 -2.945988142849139691e-16 0.000000000000000000e+00 0.000000000000000000e+00 0.000000000000000000e+00 0.000000000000000000e+00 7.652687700946292232e-16 -7.473097399052448248e-15 0.000000000000000000e+00 1.336038067900112879e-15 -7.814802415008052157e-15
4.500076910430196904e+02 -1.602599919533319621e-03 6.986921189005146707e-03 7.663754400688245656e-03 -7.383444785570329565e-03 -2.277927499044640411e-02 2.090684033260720165e-02 -5.879432842730099654e-03 2.850790272339240317e-02 7.772022424387343802e-03 9.303222806327827738e-05 1.521793691653872127e-02 -3.344577504929573033e-03 1.147922206132616623e-03 -9.389952093713649708e-03 3.357342214759311688e-02 9.191577749589348312e-03 1.072776008612733312e-01 2.297957390086359172e-02 8.296822020259699004e-03 -9.504180260355946097e-02 7.274703701264229397e-03 -1.804982195784862048e-02 2.393888245670290627e-02 -8.546385549496192391e-02 3.227383546867275410e-02 1.666474290978348649e-01 -1.823585145731058260e-02 1.147519396316894376e-02 3.985600750119726310e-02 -2.860144465335451650e-02 1.751562494521216595e-02 6.295681504688967201e-02 5.609331736908446109e-03 7.199724065392691923e-04 -1.225271458366031761e-02 4.750984160067862373e-03 -1.187794543743468482e-03 -6.784115096425009754e-03 6.734195151542743396e-02 -4.098978152215295573e-02 -2.191106015347977498e-01 7.537317601750873064e-02 -1.059535519728027897e-01 -3.690840758356261908e-02 7.560075949312336507e-02 -2.986750486108762370e-01 -1.608536015438584432e-01 7.609380189702771857e-02 2.059583807193994809e-01 -2.939673668849095145e-02 -5.927117212143559639e-03 1.727925403692908909e-02 -1.506733387728112147e-02 0.000000000000000000e+00 0.000000000000000000e+00 0.000000000000000000e+00 -7.153984632841919034e-15 2.153374388041488001e-16 0.000000000000000000e+00 -2.453988709354366357e-15 1.335519795615329150e-15 0.000000000000000000e+00 3.307749356257243790e-15 -6.896795957215463896e-16 -2.039478177088847760e-15 0.000000000000000000e+00 0.000000000000000000e+00 0.000000000000000000e+00 0.000000000000000000e+00 -2.848093054717543167e-15 -8.282164375896316052e-15 0.000000000000000000e+00 3.409000303649053060e-14 1.945971487827702753e-13 3.307749356257243790e-15 -6.896795957215463896e-16 -2.039478177088847760e-15 0.000000000000000000e+00 -1.159827466559604454e-15 5.622747667521826334e-16 0.000000000000000000e+00 -2.261715195145525190e-15 -3.404352749791862686e-15 0.000000000000000000e+00 2.591580793301194404e-14 1.415100644282316237e-13 3.307749356257243790e-15 -6.896795957215463896e-16 -2.039478177088847760e-15 0.000000000000000000e+00 0.000000000000000000e+00 0.000000000000000000e+00 0.000000000000000000e+00 -3.553308760539844708e-16 -2.222999064103266116e-15 0.000000000000000000e+00 4.926309958244865917e-15 4.056897699698001852e-14 3.307749356257243790e-15 -6.896795957215463896e-16 -2.039478177088847760e-15 0.000000000000000000e+00 0.000000000000000000e+00 0.000000000000000000e+00 0.000000000000000000e+00 -7.647167425579760744e-16 -3.572097817967179602e-16 0.000000000000000000e+00 5.263126536251800599e-15 2.662457855663975891e-14 5.923170891998440907e-02 -1.124979323156686944e-01 -1.619019607476811506e-01 2.992538059718625673e-02 4.633828789839213730e-02 -4.550075531101482884e-02 6.557656882090569239e-02 -3.500405031239441772e-02 2.941998491356988266e-02 -8.342713182635958305e-03 6.928638138862273088e-01 6.626529811057199626e-02 0.000000000000000000e+00 0.000000000000000000e+00 0.000000000000000000e+00 2.231602349414838940e-15 -2.041771992221204802e-15 0.000000000000000000e+00 4.062738528387348704e-15 -5.617500695385381570e-16 0.000000000000000000e+00 -1.449308858764715890e-15 -3.856152241666731891e-15 8.121572458741855753e-17 0.000000000000000000e+00 0.000000000000000000e+00 0.000000000000000000e+00 0.000000000000000000e+00 1.040969740567890394e-15 -4.139559378935395006e-17 0.000000000000000000e+00 -6.589001529473811533e-16 5.377485139261719503e-16 -1.449308858764715890e-15 -3.856152241666731891e-15 8.121572458741855753e-17 0.000000000000000000e+00 -1.033861792663130000e-15 -1.089135344976736722e-15 0.000000000000000000e+00 -1.074932849301745465e-15 6.716183410299068789e-16 0.000000000000000000e+00 -1.133166711208586313e-16 -2.094096217074461349e-15 -1.449308858764715890e-15 -3.856152241666731891e-15 8.121572458741855753e-17 0.000000000000000000e+00 0.000000000000000000e+00 0.000000000000000000e+00 0.000000000000000000e+00 1.872910095897106308e-15 2.244117603055145781e-15 0.000000000000000000e+00 9.904505531339620027e-16 6.985823485045578361e-16 -1.449308858764715890e-15 -3.856152241666731891e-15 8.121572458741855753e-17 0.000000000000000000e+00 0.000000000000000000e+00 0.000000000000000000e+00 0.000000000000000000e+00 -9.504213367004949212e-16 -6.577141580828539555e-16 0.000000000000000000e+00 2.778426518840364118e-16 -1.892598183068971805e-15
